# AST/ASF file generated using VICON BodyLanguage
# -----------------------------------------------
:version 1.10
:name VICON
:units
  mass 1.0
  length 0.45
  angle deg
:documentation
   .ast/.asf automatically generated from VICON data using
   VICON BodyBuilder and BodyLanguage model FoxedUp or BRILLIANT.MOD
:root
   order TX TY TZ RX RY RZ
   axis XYZ
   position 0 0 0  
   orientation 0 0 0 
:bonedata
  begin
     id 1 
     name lhipjoint
     direction 0.693937 -0.600361 0.397515 
     length 2.37164 
     axis 0 0 0  XYZ
  end
  begin
     id 2 
     name lfemur
     direction 0.34202 -0.939693 0  
     length 6.18497  
     axis 0 0 20  XYZ
    dof rx ry rz
    limits (-160.0 20.0)
           (-70.0 70.0)
           (-60.0 70.0)
  end
  begin
     id 3 
     name ltibia
     direction 0.34202 -0.939693 0   
     length 6.91601   
     axis 0 0 20   XYZ
    dof rx
    limits (-10.0 170.0)
  end
  begin
     id 4 
     name lfoot
     direction 0.0978718 -0.2689 0.958182   
     length 1.81453   
     axis -90 7.62852e-016 20   XYZ
    dof rx rz
    limits (-45.0 90.0)
           (-70.0 20.0)
  end
  begin
     id 5 
     name ltoes
     direction 1.53569e-011 -4.21951e-011 1   
     length 0.912052   
     axis -90 7.62852e-016 20   XYZ
    dof rx
    limits (-90.0 20.0)
  end
  begin
     id 6 
     name rhipjoint
     direction -0.643996 -0.637876 0.422354   
     length 2.23216  
     axis 0 0 0  XYZ 
  end
  begin
     id 7 
     name rfemur
     direction -0.34202 -0.939693 0   
     length 6.15404   
     axis 0 0 -20   XYZ
    dof rx ry rz
    limits (-160.0 20.0)
           (-70.0 70.0)
           (-70.0 60.0)
  end
  begin
     id 8 
     name rtibia
     direction -0.34202 -0.939693 0   
     length 6.86744   
     axis 0 0 -20   XYZ
    dof rx
    limits (-10.0 170.0)
 end
 begin
     id 9 
     name rfoot
     direction -0.118701 -0.326127 0.937844   
     length 1.9243  
     axis -90 -7.62852e-016 -20   XYZ
    dof rx rz
    limits (-45.0 90.0)
           (-20.0 70.0)
  end
  begin
     id 10 
     name rtoes
     direction -1.5356e-011 -4.2181e-011 1   
     length 0.958865   
     axis -90 -7.62852e-016 -20   XYZ
    dof rx
    limits (-90.0 20.0)
  end
  begin
     id 11 
     name lowerback
     direction 0.0310826 0.968686 -0.246334   
     length 2.00021   
     axis 0 0 0   XYZ
    dof rx ry rz
    limits (-20.0 45.0)
           (-30.0 30.0)
           (-30.0 30.0)
  end
  begin
     id 12 
     name upperback
     direction -0.0152834 0.999474 -0.0286152   
     length 2.03728   
     axis 0 0 0   XYZ
    dof rx ry rz
    limits (-20.0 45.0)
           (-30.0 30.0)
           (-30.0 30.0)
  end
  begin
     id 13 
     name thorax
     direction -0.0323701 0.996236 0.0804149   
     length 2.16   
     axis 0 0 0   XYZ
    dof rx ry rz
    limits (-20.0 45.0)
           (-30.0 30.0)
           (-30.0 30.0)
  end
  begin
     id 14 
     name lowerneck
     direction 0.0307935 0.982251 0.185027   
     length 1.43558   
     axis 0 0 0   XYZ
    dof rx ry rz
    limits (-20.0 45.0)
           (-30.0 30.0)
           (-30.0 30.0)
  end
  begin
     id 15 
     name upperneck
     direction -0.0927153 0.994775 0.0427454   
     length 1.44603   
     axis 0 0 0   XYZ
    dof rx ry rz
    limits (-20.0 45.0)
           (-30.0 30.0)
           (-30.0 30.0)
  end
  begin
     id 16
     name head
     direction -0.0341265 0.999406 -0.00472033  
     length 1.45931  
     axis 0 0 0   XYZ
    dof rx ry rz
    limits (-20.0 45.0)
           (-30.0 30.0)
           (-30.0 30.0)
  end
  begin
     id 17 
     name lclavicle
     direction 0.820755 0.555306 -0.134151  
     length 2.66075  
     axis 0 0 0   XYZ
    dof ry rz
    limits (-20.0 10.0)
           (0.0 20.0)
  end
  begin
     id 18 
     name lhumerus
     direction 1 -4.48971e-011 5.24853e-027   
     length 5.0546   
     axis -180 -30 -90   XYZ
    dof rx ry rz
    limits (-60.0 90.0)
           (-90.0 90.0)
           (-90.0 90.0)
  end
  begin
     id 19
     name lradius
     direction 1 -4.48971e-011 2.76575e-028   
     length 3.39013   
     axis -180 -30 -90   XYZ
    dof rx
    limits (-10.0 170.0)
  end
  begin
     id 20
     name lwrist
     direction 1 -4.48939e-011 -2.27826e-027   
     length 1.69507   
     axis 2.17013e-015 90 90   XYZ
    dof ry
    limits (-180.0 0.0)
 end
  begin
     id 21 
     name lhand
     direction 1 -4.49009e-011 -4.55652e-027   
     length 0.572425   
     axis 2.90745e-015 90 90   XYZ
    dof rx rz
    limits (-90.0 90.0)
           (-45.0 45.0)
  end
  begin
     id 22 
     name lfingers
     direction 1 -4.48955e-011 -9.11303e-027   
     length 0.461504   
     axis 5.81489e-015 90 90   XYZ
    dof rx
    limits (0.0 90.0)
  end
  begin
     id 23
     name lthumb
     direction 0.707107 -6.34929e-011 0.707107   
     length 0.66263   
     axis -90 45 2.85299e-015   XYZ
    dof rx rz
    limits (-45.0 45.0)
           (-45.0 45.0)
  end
  begin
     id 24 
     name rclavicle
     direction -0.754477 0.632921 -0.173712   
     length 2.73081  
     axis 0 0 0   XYZ 
    dof ry rz
    limits (-10.0 20.0)
           (-20.0 0.0)
  end
  begin
     id 25 
     name rhumerus
     direction -1 -4.48969e-011 5.1496e-027  
     length 5.0701   
     axis -180 30 90   XYZ
    dof rx ry rz
    limits (-90.0 60.0)
           (-90.0 90.0)
           (-90.0 90.0)
  end
  begin
     id 26 
     name rradius
     direction -1 -4.48967e-011 -7.15624e-028   
     length 3.14957   
     axis -180 30 90   XYZ
    dof rx
    limits (-10.0 170.0)
  end
  begin
     id 27 
     name rwrist
     direction -1 -4.48938e-011 -2.27826e-027   
     length 1.57479   
     axis 2.17013e-015 -90 -90   XYZ
    dof ry
    limits (-180.0 0.0)
  end
  begin
     id 28
     name rhand
     direction -1 -4.49008e-011 -4.55652e-027   
     length 0.718191   
     axis 2.90745e-015 -90 -90   XYZ
    dof rx rz
    limits (-90.0 90.0)
           (-45.0 45.0)
  end
  begin
     id 29
     name rfingers
     direction -1 -4.48953e-011 -9.11303e-027   
     length 0.579024   
     axis 5.81489e-015 -90 -90   XYZ
    dof rx
    limits (0.0 90.0)
  end
  begin
     id 30
     name rthumb
     direction -0.707107 -6.34937e-011 0.707107   
     length 0.831366   
     axis -90 -45 -2.85299e-015   XYZ
    dof rx rz
    limits (-45.0 45.0)
           (-45.0 45.0)
  end
:hierarchy
  begin
    root lhipjoint rhipjoint lowerback
    lhipjoint lfemur
    lfemur ltibia
    ltibia lfoot
    lfoot ltoes
    rhipjoint rfemur
    rfemur rtibia
    rtibia rfoot
    rfoot rtoes
    lowerback upperback
    upperback thorax
    thorax lowerneck lclavicle rclavicle
    lowerneck upperneck
    upperneck head
    lclavicle lhumerus
    lhumerus lradius
    lradius lwrist
    lwrist lhand lthumb
    lhand lfingers
    rclavicle rhumerus
    rhumerus rradius
    rradius rwrist
    rwrist rhand rthumb
    rhand rfingers
  end

#!OML:ASF H:\Male1\Project 1\Capture day 1\Session 1\Male1.ASF
:FULLY-SPECIFIED
:DEGREES
89
root 16.8546 15.4867 -0.84267 -183.413 -82.154 180.322
lowerback 5.29678 1.83656 -1.8022
upperback 3.01847 2.26579 -1.94588
thorax 0.144433 1.08764 -1.10215
lowerneck -5.46955 2.76655 8.36966
upperneck 1.2286 3.22088 -3.85461
head 1.57014 1.58096 -2.60969
rclavicle 1.45113e-014 -1.74931e-014
rhumerus -32.5222 8.70898 -92.6023
rradius 29.8313
rwrist -14.2653
rhand -15.3424 2.11374
rfingers 7.12502
rthumb 10.8345 -27.5868
lclavicle 1.45113e-014 -1.74931e-014
lhumerus -36.6586 -11.7417 87.4566
lradius 32.8657
lwrist -5.49959
lhand -27.8589 5.04957
lfingers 7.12502
lthumb -1.24964 35.0257
rfemur -1.60061 17.5264 21.3
rtibia 19.8599
rfoot -28.3995 -31.5113
rtoes -17.7631
lfemur 0.859582 -18.1916 -20.9788
ltibia 20.1235
lfoot -26.4365 30.8643
ltoes 3.61839
90
root 16.8468 15.4857 -0.841559 -182.669 -81.9709 179.595
lowerback 5.28735 1.83605 -1.85502
upperback 2.9842 2.2611 -2.02254
thorax 0.115557 1.08512 -1.15144
lowerneck -5.46309 2.96375 8.28623
upperneck 1.14314 3.4756 -3.47536
head 1.54491 1.71218 -2.45658
rclavicle -2.24627e-014 -3.18055e-014
rhumerus -32.7032 9.05842 -92.8017
rradius 30.0704
rwrist -14.4705
rhand -15.2158 2.14078
rfingers 7.12502
rthumb 10.9566 -27.5533
lclavicle -2.24627e-014 -3.18055e-014
lhumerus -38.1577 -13.3151 88.2145
lradius 34.9525
lwrist -10.3883
lhand -33.3248 1.3725
lfingers 7.12502
lthumb -6.5278 31.2519
rfemur -1.60041 17.6032 21.1684
rtibia 19.784
rfoot -28.1897 -31.4758
rtoes -18.8532
lfemur 0.857904 -18.061 -21.1045
ltibia 20.2086
lfoot -26.6382 30.8876
ltoes 3.55233
91
root 16.8474 15.4854 -0.841016 -184.079 -81.8738 181.022
lowerback 5.38253 1.74218 -1.70645
upperback 2.95068 2.14125 -1.96015
thorax 0.0302893 1.02772 -1.16789
lowerneck -4.81467 3.16581 7.64078
upperneck 0.614838 3.80991 -2.54638
head 1.23432 1.88425 -2.02384
rclavicle -2.23633e-014 7.95139e-016
rhumerus -32.8317 9.71199 -92.9942
rradius 30.3861
rwrist -14.7041
rhand -14.8419 2.373
rfingers 7.12502
rthumb 11.3172 -27.3017
lclavicle -2.23633e-014 7.95139e-016
lhumerus -39.7541 -15.2472 89.1256
lradius 38.0004
lwrist -15.6237
lhand -37.6991 -0.187664
lfingers 7.12502
lthumb -10.749 29.5173
rfemur -1.59455 17.7363 21.4004
rtibia 19.7062
rfoot -28.1632 -31.5096
rtoes -19.1126
lfemur 0.805286 -17.8951 -20.846
ltibia 20.2958
lfoot -26.7839 30.7664
ltoes 3.69741
92
root 16.8433 15.4841 -0.838195 -186.272 -81.5985 183.191
lowerback 5.42427 1.72172 -1.37368
upperback 2.95902 2.13062 -1.88342
thorax 0.0246275 1.02645 -1.27572
lowerneck -5.52693 3.20494 8.35384
upperneck 1.18298 3.77744 -3.22348
head 1.58284 1.86729 -2.37249
rclavicle -5.96354e-016 -6.36111e-015
rhumerus -32.8144 10.0756 -93.0298
rradius 30.5888
rwrist -14.4394
rhand -14.4795 2.77605
rfingers 7.12502
rthumb 11.6667 -26.8791
lclavicle -5.96354e-016 -6.36111e-015
lhumerus -41.3576 -17.9857 90.3298
lradius 41.8998
lwrist -16.905
lhand -40.5459 -2.74897
lfingers 7.12502
lthumb -13.494 26.7939
rfemur -1.53767 17.8815 21.7797
rtibia 19.6463
rfoot -28.0314 -31.4897
rtoes -19.1661
lfemur 0.871728 -17.7069 -20.5029
ltibia 20.3665
lfoot -27.1032 30.6825
ltoes 4.24597
93
root 16.8369 15.4845 -0.835914 -186.802 -81.4016 183.741
lowerback 5.34454 1.72805 -1.23534
upperback 2.98098 2.14841 -1.87769
thorax 0.0965947 1.03696 -1.34513
lowerneck -5.71666 3.11987 8.47769
upperneck 1.33487 3.6415 -3.29587
head 1.66372 1.80043 -2.42325
rclavicle 1.09332e-014 -3.97569e-015
rhumerus -32.7683 10.3548 -92.9954
rradius 30.8012
rwrist -14.2507
rhand -14.3676 2.80293
rfingers 7.12502
rthumb 11.7746 -26.8461
lclavicle 1.09332e-014 -3.97569e-015
lhumerus -42.7555 -21.2513 91.6841
lradius 46.194
lwrist -14.694
lhand -42.1168 -6.86561
lfingers 7.12502
lthumb -15.0077 22.5705
rfemur -1.52908 17.9865 21.8834
rtibia 19.6
rfoot -27.8791 -31.4954
rtoes -19.3245
lfemur 0.879848 -17.5819 -20.4056
ltibia 20.4167
lfoot -27.2667 30.6844
ltoes 4.49273
94
root 16.8341 15.4858 -0.835056 -185.287 -81.4622 182.271
lowerback 5.23059 1.68761 -1.43585
upperback 2.98513 2.08786 -1.92624
thorax 0.158038 1.00419 -1.27609
lowerneck -5.68754 3.19773 8.53188
upperneck 1.20094 3.74496 -3.36213
head 1.62473 1.84856 -2.45179
rclavicle 1.07344e-014 -1.35174e-014
rhumerus -32.8253 10.8707 -92.9759
rradius 31.1521
rwrist -14.5749
rhand -14.5653 2.92242
rfingers 7.12502
rthumb 11.584 -26.7374
lclavicle 1.07344e-014 -1.35174e-014
lhumerus -43.4551 -24.1967 92.4665
lradius 50.4368
lwrist -14.114
lhand -41.9126 -9.15025
lfingers 7.12502
lthumb -14.811 20.3005
rfemur -1.58622 17.9599 21.6112
rtibia 19.6008
rfoot -27.8397 -31.5047
rtoes -19.4036
lfemur 0.811376 -17.5382 -20.6259
ltibia 20.417
lfoot -27.1195 30.6654
ltoes 4.18911
95
root 16.8319 15.4868 -0.835238 -184.194 -81.4913 181.203
lowerback 5.11028 1.69663 -1.56419
upperback 2.9948 2.0977 -1.95146
thorax 0.23139 1.00739 -1.22677
lowerneck -5.58129 2.98966 8.39106
upperneck 1.34942 3.48867 -3.33497
head 1.63318 1.72461 -2.42741
rclavicle 2.98177e-016 3.10104e-014
rhumerus -32.8263 11.3148 -92.8828
rradius 31.4161
rwrist -14.8694
rhand -14.8441 3.46897
rfingers 7.12502
rthumb 11.3152 -26.2058
lclavicle 2.98177e-016 3.10104e-014
lhumerus -43.5162 -27.4079 92.9491
lradius 54.2705
lwrist -14.2805
lhand -42.1152 -11.6482
lfingers 7.12502
lthumb -15.0061 17.788
rfemur -1.6753 17.9117 21.416
rtibia 19.6996
rfoot -27.8884 -31.445
rtoes -19.4204
lfemur 0.831544 -17.5446 -20.7927
ltibia 20.3185
lfoot -27.0332 30.6651
ltoes 4.06069
96
root 16.8285 15.4862 -0.836422 -184.716 -81.5374 181.706
lowerback 5.0686 1.7106 -1.47124
upperback 2.98076 2.12371 -1.88502
thorax 0.241152 1.02203 -1.21068
lowerneck -5.7205 3.12371 8.7572
upperneck 1.39801 3.64645 -3.81932
head 1.70899 1.79678 -2.65222
rclavicle -2.88238e-015 -2.38542e-015
rhumerus -32.8784 11.7483 -92.7182
rradius 31.6576
rwrist -15.0185
rhand -14.9947 3.68971
rfingers 7.12502
rthumb 11.1699 -25.993
lclavicle -2.88238e-015 -2.38542e-015
lhumerus -43.0051 -30.6589 92.991
lradius 57.9702
lwrist -15.2296
lhand -42.7902 -14.118
lfingers 7.12502
lthumb -15.6563 15.2685
rfemur -1.70668 17.8684 21.513
rtibia 19.8665
rfoot -27.9818 -31.43
rtoes -19.4519
lfemur 0.95609 -17.5495 -20.7155
ltibia 20.1324
lfoot -26.8459 30.7174
ltoes 3.86447
97
root 16.8183 15.485 -0.834122 -184.69 -81.6827 181.583
lowerback 4.9994 1.69853 -1.38949
upperback 2.98751 2.11491 -1.84174
thorax 0.287752 1.01889 -1.20921
lowerneck -5.67476 3.03119 8.70833
upperneck 1.54384 3.53864 -3.95593
head 1.74397 1.74375 -2.69441
rclavicle -1.635e-014 2.14687e-014
rhumerus -32.9584 12.1839 -92.5013
rradius 31.9218
rwrist -15.1966
rhand -15.0423 3.60736
rfingers 7.12502
rthumb 11.1239 -26.0778
lclavicle -1.635e-014 2.14687e-014
lhumerus -41.811 -33.9438 92.5001
lradius 61.543
lwrist -15.9844
lhand -43.6922 -15.9264
lfingers 7.12502
lthumb -16.5248 13.3899
rfemur -1.63313 17.6963 21.4853
rtibia 20.0025
rfoot -27.7481 -31.5993
rtoes -19.9944
lfemur 1.17398 -17.6287 -20.8146
ltibia 19.967
lfoot -26.6886 30.7822
ltoes 3.63834
98
root 16.8113 15.4882 -0.834905 -183.692 -81.9663 180.582
lowerback 4.85331 1.66262 -1.43933
upperback 2.96939 2.07039 -1.85193
thorax 0.348533 0.99663 -1.18551
lowerneck -5.67304 3.01434 8.72809
upperneck 1.68033 3.52352 -4.11834
head 1.79293 1.73609 -2.75438
rclavicle -1.26725e-014 8.74653e-015
rhumerus -32.9087 12.4108 -92.2168
rradius 32.091
rwrist -15.3246
rhand -14.9293 3.45066
rfingers 7.12502
rthumb 11.2329 -26.2286
lclavicle -1.26725e-014 8.74653e-015
lhumerus -39.8117 -37.2487 91.3172
lradius 64.9696
lwrist -16.3299
lhand -43.4995 -16.1702
lfingers 7.12502
lthumb -16.3393 13.1615
rfemur -1.6578 17.5198 21.2962
rtibia 20.0775
rfoot -27.4706 -31.9398
rtoes -20.2969
lfemur 1.18427 -17.6183 -20.9561
ltibia 19.8758
lfoot -26.396 30.6709
ltoes 3.28555
99
root 16.8156 15.4903 -0.83855 -183.255 -82.5213 180.091
lowerback 4.92949 1.51925 -1.46251
upperback 2.96074 1.87709 -1.82397
thorax 0.293544 0.899917 -1.13748
lowerneck -5.84345 2.94372 8.49914
upperneck 2.06021 3.43614 -4.08983
head 1.93608 1.69661 -2.70489
rclavicle 9.59136e-015 4.77083e-015
rhumerus -32.7064 12.7249 -91.8981
rradius 32.1431
rwrist -15.3913
rhand -14.7221 3.23769
rfingers 7.12502
rthumb 11.4327 -26.4306
lclavicle 9.59136e-015 4.77083e-015
lhumerus -36.9055 -40.1107 89.2549
lradius 68.4635
lwrist -16.1926
lhand -45.0383 -14.3675
lfingers 7.12502
lthumb -17.8205 14.836
rfemur -1.56842 17.3701 21.2434
rtibia 20.1149
rfoot -27.7581 -32.2244
rtoes -19.6537
lfemur 1.11198 -17.7452 -20.9901
ltibia 19.8567
lfoot -25.898 30.4708
ltoes 2.66622
100
root 16.82 15.4871 -0.842522 -183.525 -82.9714 180.3
lowerback 4.96932 1.41079 -1.41212
upperback 3.00349 1.73507 -1.75634
thorax 0.313332 0.829008 -1.09015
lowerneck -6.18299 2.96879 8.23946
upperneck 2.30387 3.46179 -4.03249
head 2.07172 1.70901 -2.63409
rclavicle -3.22528e-014 5.56597e-015
rhumerus -32.3218 13.1478 -91.5336
rradius 32.0076
rwrist -15.4097
rhand -14.6013 3.20374
rfingers 7.12502
rthumb 11.5493 -26.4581
lclavicle -3.22528e-014 5.56597e-015
lhumerus -32.6149 -43.5092 86.3176
lradius 71.2298
lwrist -14.7622
lhand -44.9997 -15.0111
lfingers 7.12502
lthumb -17.7833 14.1958
rfemur -1.40074 17.2493 21.32
rtibia 20.108
rfoot -28.323 -32.1735
rtoes -18.7519
lfemur 1.06311 -17.8741 -20.932
ltibia 19.8951
lfoot -25.6062 30.2472
ltoes 2.2359
101
root 16.8262 15.4822 -0.847186 -184.43 -83.3932 181.177
lowerback 4.95116 1.34855 -1.29915
upperback 3.03821 1.65928 -1.6846
thorax 0.359447 0.79231 -1.07532
lowerneck -6.19543 3.09995 8.06758
upperneck 2.01768 3.64332 -3.99187
head 1.98505 1.7937 -2.57942
rclavicle 2.85256e-014 -1.27222e-014
rhumerus -31.8884 13.3929 -91.1098
rradius 31.7797
rwrist -15.3657
rhand -14.4719 3.0925
rfingers 7.12502
rthumb 11.6741 -26.5623
lclavicle 2.85256e-014 -1.27222e-014
lhumerus -27.2856 -46.359 82.2443
lradius 74.1227
lwrist -14.7068
lhand -44.6419 -14.0271
lfingers 7.12502
lthumb -17.439 15.2107
rfemur -1.24099 17.0924 21.478
rtibia 20.076
rfoot -29.0207 -31.9609
rtoes -17.8374
lfemur 0.956653 -18.0425 -20.7808
ltibia 19.9707
lfoot -25.3927 30.0586
ltoes 1.8769
102
root 16.8312 15.4819 -0.853345 -184.967 -83.8077 181.695
lowerback 4.88382 1.2935 -1.2825
upperback 3.03896 1.59032 -1.62757
thorax 0.395804 0.758255 -1.02134
lowerneck -5.69299 3.02499 7.64504
upperneck 1.6388 3.60333 -3.78273
head 1.74802 1.77361 -2.43503
rclavicle -6.41081e-015 -3.18055e-015
rhumerus -31.5348 13.5655 -90.6728
rradius 31.629
rwrist -15.1926
rhand -14.5579 3.14549
rfingers 7.12502
rthumb 11.5911 -26.514
lclavicle -6.41081e-015 -3.18055e-015
lhumerus -21.1 -48.8752 77.2761
lradius 76.8868
lwrist -14.2816
lhand -45.4087 -12.2868
lfingers 7.12502
lthumb -18.1769 16.8839
rfemur -1.1453 16.8605 21.5679
rtibia 20.0542
rfoot -29.3316 -31.9978
rtoes -17.7427
lfemur 0.841718 -18.2056 -20.6788
ltibia 20.0307
lfoot -25.1393 29.9137
ltoes 1.54556
